<!-- Generated by IcoMoon.io -->
<svg version="1.1" xmlns="http://www.w3.org/2000/svg" width="32" height="32" viewBox="0 0 32 32">
<title></title>
<g id="icomoon-ignore">
</g>
<path fill="#fff" d="M8 13.333c0 1.473-1.194 2.667-2.667 2.667s-2.667-1.194-2.667-2.667c0-1.473 1.194-2.667 2.667-2.667s2.667 1.194 2.667 2.667z"></path>
<path fill="#fff" d="M8.893 17.867c-1.347 1.013-2.227 2.64-2.227 4.467v0.333h-5.667c-0.547 0-1-0.453-1-1v-0.667c0-2.027 1.64-3.667 3.667-3.667h3.333c0.693 0 1.347 0.2 1.893 0.533z"></path>
<path fill="#fff" d="M29.333 13.333c0 1.473-1.194 2.667-2.667 2.667s-2.667-1.194-2.667-2.667c0-1.473 1.194-2.667 2.667-2.667s2.667 1.194 2.667 2.667z"></path>
<path fill="#fff" d="M32 21v0.667c0 0.547-0.453 1-1 1h-5.667v-0.333c0-1.827-0.88-3.453-2.227-4.467 0.547-0.333 1.2-0.533 1.893-0.533h3.333c2.027 0 3.667 1.64 3.667 3.667z"></path>
<path fill="#fff" d="M20 12.667c0 2.209-1.791 4-4 4s-4-1.791-4-4c0-2.209 1.791-4 4-4s4 1.791 4 4z"></path>
<path fill="#fff" d="M19.667 18.667h-7.333c-2.023 0-3.667 1.644-3.667 3.667v2c0 0.552 0.448 1 1 1h12.667c0.552 0 1-0.448 1-1v-2c0-2.023-1.644-3.667-3.667-3.667z"></path>
</svg>
