<!-- Generated by IcoMoon.io -->
<svg version="1.1" xmlns="http://www.w3.org/2000/svg" width="32" height="32" viewBox="0 0 32 32">
<title></title>
<g id="icomoon-ignore">
</g>
<path fill="#fff" d="M2.903 0v32h26.195v-32zM27.222 30.125h-22.445v-28.25h5.618v4.396h11.208v-4.396h5.618zM19.729 1.875v2.521h-7.458v-2.521z"></path>
<path fill="#fff" d="M12.177 9.729h11.49v1.875h-11.49z"></path>
<path fill="#fff" d="M8.333 9.729h1.969v1.875h-1.969z"></path>
<path fill="#fff" d="M12.177 13.729h11.49v1.875h-11.49z"></path>
<path fill="#fff" d="M8.333 13.729h1.969v1.875h-1.969z"></path>
<path fill="#fff" d="M8.333 17.729h1.969v1.875h-1.969z"></path>
<path fill="#fff" d="M12.177 17.729h11.49v1.875h-11.49z"></path>
<path fill="#fff" d="M8.333 23.729h5v1.875h-5z"></path>
<path fill="#fff" d="M18.667 24.674l-1.337-1.337-1.326 1.326 2.663 2.663 3.996-3.996-1.326-1.326z"></path>
</svg>
