<!-- Generated by IcoMoon.io -->
<svg version="1.1" xmlns="http://www.w3.org/2000/svg" width="32" height="32" viewBox="0 0 32 32">
<title></title>
<g id="icomoon-ignore">
</g>
<path fill="#fff" d="M12.333 0h-10c-1.287 0-2.333 1.047-2.333 2.333v6c0 1.287 1.047 2.334 2.333 2.334h10c1.287 0 2.334-1.047 2.334-2.334v-6c0-1.287-1.047-2.333-2.334-2.333z"></path>
<path fill="#fff" d="M12.333 13.333h-10c-1.287 0-2.333 1.047-2.333 2.334v14c0 1.287 1.047 2.333 2.333 2.333h10c1.287 0 2.334-1.047 2.334-2.333v-14c0-1.287-1.047-2.334-2.334-2.334z"></path>
<path fill="#fff" d="M29.667 21.333h-10c-1.287 0-2.334 1.047-2.334 2.334v6c0 1.287 1.047 2.333 2.334 2.333h10c1.287 0 2.333-1.047 2.333-2.333v-6c0-1.287-1.047-2.334-2.333-2.334z"></path>
<path fill="#fff" d="M29.667 0h-10c-1.287 0-2.334 1.047-2.334 2.333v14c0 1.287 1.047 2.334 2.334 2.334h10c1.287 0 2.333-1.047 2.333-2.334v-14c0-1.287-1.047-2.333-2.333-2.333z"></path>
</svg>
