<!-- Generated by IcoMoon.io -->
<svg version="1.1" xmlns="http://www.w3.org/2000/svg" width="32" height="32" viewBox="0 0 32 32">
<title></title>
<g id="icomoon-ignore">
</g>
<path fill="#fff" d="M29.333 3.667h-26.667c-1.471 0-2.667 1.196-2.667 2.667v19.333c0 1.471 1.196 2.667 2.667 2.667h26.667c1.471 0 2.667-1.196 2.667-2.667v-19.333c0-1.471-1.196-2.667-2.667-2.667zM4 10.067c0-1.176 0.957-2.133 2.133-2.133h3.467c1.176 0 2.133 0.957 2.133 2.133v3.467c0 1.176-0.957 2.133-2.133 2.133h-3.467c-1.176 0-2.133-0.957-2.133-2.133zM9.2 23.667h-4.667c-0.295 0-0.533-0.239-0.533-0.533s0.239-0.533 0.533-0.533h4.667c0.295 0 0.533 0.239 0.533 0.533s-0.239 0.533-0.533 0.533zM11.733 23.667h-0.333c-0.295 0-0.533-0.239-0.533-0.533s0.239-0.533 0.533-0.533h0.333c0.295 0 0.533 0.239 0.533 0.533s-0.239 0.533-0.533 0.533zM15.667 20h-11.133c-0.295 0-0.533-0.239-0.533-0.533s0.239-0.533 0.533-0.533h11.133c0.295 0 0.533 0.239 0.533 0.533s-0.239 0.533-0.533 0.533zM19.733 20h-1.333c-0.295 0-0.533-0.239-0.533-0.533s0.239-0.533 0.533-0.533h1.333c0.295 0 0.533 0.239 0.533 0.533s-0.239 0.533-0.533 0.533zM23.6 20h-1.267c-0.295 0-0.533-0.239-0.533-0.533s0.239-0.533 0.533-0.533h1.267c0.295 0 0.533 0.239 0.533 0.533s-0.239 0.533-0.533 0.533zM22.116 13.713c0.391-0.391 1.023-0.391 1.414 0s0.391 1.023-0 1.414c-0.391 0.391-1.023 0.391-1.414 0s-0.391-1.023 0-1.414zM24.897 12.879c-0.137 0-0.273-0.052-0.377-0.156-0.938-0.938-2.456-0.938-3.394 0-0.208 0.208-0.546 0.208-0.754 0s-0.208-0.546 0-0.754c1.355-1.355 3.548-1.355 4.903 0 0.337 0.337 0.094 0.91-0.377 0.91zM26.877 10.899c-0.137 0-0.273-0.052-0.377-0.156-2.032-2.032-5.322-2.033-7.354 0-0.208 0.208-0.546 0.208-0.754 0s-0.208-0.546 0-0.754c2.449-2.449 6.413-2.449 8.862 0 0.337 0.337 0.094 0.91-0.377 0.91z"></path>
</svg>
