<!-- Generated by IcoMoon.io -->
<svg version="1.1" xmlns="http://www.w3.org/2000/svg" width="32" height="32" viewBox="0 0 32 32">
<title></title>
<g id="icomoon-ignore">
</g>
<path fill="#fff" d="M18.623 11.794c0 1.423-1.153 2.576-2.576 2.576s-2.576-1.153-2.576-2.576c0-1.423 1.153-2.576 2.576-2.576s2.576 1.153 2.576 2.576z"></path>
<path fill="#fff" d="M16 0c-8.836 0-16 7.164-16 16s7.163 16 16 16 16-7.164 16-16c0-8.836-7.164-16-16-16zM15.967 7.326c0.011 0 0.022-0.001 0.033-0.001 0.011 0.001 0.022 0.001 0.034 0.001 2.696 0.043 4.889 2.271 4.889 4.967 0 3.297-3.523 6.635-4.922 7.831-0.094-0.080-0.197-0.17-0.308-0.269-0.002-0.002-0.004-0.003-0.005-0.005-1.549-1.377-4.609-4.485-4.609-7.558-0-2.697 2.193-4.925 4.889-4.967zM16.070 24.774c-2.951 0-5.938-0.846-5.938-2.464 0-1.135 1.471-1.89 3.367-2.239 0.367 0.369 0.714 0.694 1.019 0.965-2.066 0.231-3.279 0.885-3.279 1.274 0 0.478 1.834 1.357 4.831 1.357s4.832-0.879 4.832-1.357c0-0.397-1.265-1.068-3.406-1.286 0.307-0.274 0.657-0.603 1.027-0.975 1.953 0.34 3.485 1.102 3.485 2.261 0 1.617-2.987 2.464-5.938 2.464z"></path>
</svg>
