<!-- Generated by IcoMoon.io -->
<svg version="1.1" xmlns="http://www.w3.org/2000/svg" width="32" height="32" viewBox="0 0 32 32">
<title></title>
<g id="icomoon-ignore">
</g>
<path fill="#fff" d="M5.333 3.2h-4.267c-0.589 0-1.067 0.478-1.067 1.067v4.267c0 0.589 0.478 1.067 1.067 1.067s1.067-0.478 1.067-1.067v-3.2h3.2c0.589 0 1.067-0.478 1.067-1.067s-0.478-1.067-1.067-1.067z"></path>
<path fill="#fff" d="M30.933 22.4c-0.589 0-1.067 0.478-1.067 1.067v3.2h-3.2c-0.589 0-1.067 0.478-1.067 1.067s0.478 1.067 1.067 1.067h4.267c0.589 0 1.067-0.478 1.067-1.067v-4.267c0-0.589-0.478-1.067-1.067-1.067z"></path>
<path fill="#fff" d="M30.933 3.2h-4.267c-0.589 0-1.067 0.478-1.067 1.067s0.478 1.067 1.067 1.067h3.2v3.2c0 0.589 0.478 1.067 1.067 1.067s1.067-0.478 1.067-1.067v-4.267c0-0.589-0.478-1.067-1.067-1.067z"></path>
<path fill="#fff" d="M5.333 26.667h-3.2v-3.2c0-0.589-0.478-1.067-1.067-1.067s-1.067 0.478-1.067 1.067v4.267c0 0.589 0.478 1.067 1.067 1.067h4.267c0.589 0 1.067-0.478 1.067-1.067s-0.478-1.067-1.067-1.067z"></path>
<path fill="#fff" d="M4.267 7.467h2.133v17.067h-2.133v-17.067z"></path>
<path fill="#fff" d="M8.533 7.467h2.133v12.8h-2.133v-12.8z"></path>
<path fill="#fff" d="M12.8 7.467h2.133v12.8h-2.133v-12.8z"></path>
<path fill="#fff" d="M17.067 7.467h2.133v17.067h-2.133v-17.067z"></path>
<path fill="#fff" d="M21.333 7.467h2.133v12.8h-2.133v-12.8z"></path>
<path fill="#fff" d="M25.6 7.467h2.133v17.067h-2.133v-17.067z"></path>
<path fill="#fff" d="M8.533 22.4h2.133v2.133h-2.133v-2.133z"></path>
<path fill="#fff" d="M12.8 22.4h2.133v2.133h-2.133v-2.133z"></path>
<path fill="#fff" d="M21.333 22.4h2.133v2.133h-2.133v-2.133z"></path>
</svg>
