<!-- Generated by IcoMoon.io -->
<svg version="1.1" fill='#4F6DE6' xmlns="http://www.w3.org/2000/svg" width="32" height="32" viewBox="0 0 32 32">
<title>groups</title>
<path d="M16 17q1.625 0 3.063 0.344t2.563 0.844 1.75 1.5 0.625 2.125v2.188h-16v-2.125q0-1.188 0.625-2.188t1.75-1.5 2.563-0.844 3.063-0.344zM5.313 17.313q1.125 0 1.906-0.781t0.781-1.844q0-1.125-0.781-1.906t-1.906-0.781q-1.063 0-1.844 0.781t-0.781 1.906q0 1.063 0.781 1.844t1.844 0.781zM6.813 18.813q-0.313-0.063-0.688-0.094t-0.813-0.031q-1 0-1.906 0.188t-1.781 0.563q-0.75 0.313-1.188 1t-0.438 1.5v2.063h6v-2.125q0-1.625 0.813-3.063zM26.688 17.313q1.063 0 1.844-0.781t0.781-1.844q0-1.125-0.781-1.906t-1.844-0.781q-1.125 0-1.906 0.781t-0.781 1.906q0 1.063 0.781 1.844t1.906 0.781zM32 21.938q0-0.813-0.438-1.5t-1.188-1q-0.875-0.375-1.781-0.563t-1.906-0.188q-0.438 0-0.813 0.031t-0.688 0.094q0.813 1.438 0.813 3.063v2.125h6v-2.063zM16 8q1.125 0 2.031 0.531t1.438 1.438 0.531 2.031-0.531 2.031-1.438 1.438-2.031 0.531-2.031-0.531-1.438-1.438-0.531-2.031 0.531-2.031 1.438-1.438 2.031-0.531z"></path>
</svg>
