<!-- Generated by IcoMoon.io -->
<svg version="1.1" xmlns="http://www.w3.org/2000/svg" width="24" height="32" viewBox="0 0 32 32">
<title></title>
<g id="icomoon-ignore">
</g>
<path fill="#696969" d="M28.547 19.641l-3.546 4.637c-0.71 0.928-1.811 1.472-2.979 1.472h-6.584c-0.518 0-0.938-0.42-0.938-0.938s0.42-0.938 0.938-0.938h5.707c1.227 0 2.254-1.004 2.23-2.23-0.023-1.188-0.993-2.145-2.187-2.145h-6.563c-1.884-1.812-4.792-2.024-6.919-0.504l-0.706 0.504v10.625h16.304c1.914 0 3.697-0.973 4.732-2.583l3.659-5.691c0.2-0.31 0.306-0.672 0.306-1.041 0-1.84-2.335-2.631-3.453-1.169z"></path>
<path fill="#696969" d="M4.188 17.625h-3.25c-0.518 0-0.938 0.42-0.938 0.938v12.5c0 0.518 0.42 0.938 0.938 0.938h3.25c0.518 0 0.938-0.42 0.938-0.938v-12.5c0-0.518-0.42-0.938-0.938-0.938z"></path>
<path fill="#696969" d="M17.894 5.182c-0.191 0.146-0.296 0.368-0.332 0.56-0.050 0.265 0.013 0.511 0.161 0.627 0.052 0.041 0.109 0.081 0.171 0.12z"></path>
<path fill="#696969" d="M18.563 15.625c4.308 0 7.813-3.505 7.813-7.813s-3.505-7.813-7.813-7.813-7.813 3.505-7.813 7.813 3.505 7.813 7.813 7.813zM16.198 10.367c0.189-0.289 0.576-0.37 0.865-0.181 0.338 0.221 0.549 0.317 0.832 0.356v-2.639c-0.399-0.183-0.698-0.359-0.942-0.551-0.519-0.407-0.756-1.113-0.618-1.842 0.15-0.795 0.703-1.427 1.444-1.65 0.039-0.012 0.078-0.023 0.117-0.033v-0.389c0-0.345 0.28-0.625 0.625-0.625s0.625 0.28 0.625 0.625v0.32c0.607 0.105 1.036 0.404 1.243 0.642 0.227 0.26 0.2 0.655-0.061 0.882-0.259 0.226-0.651 0.2-0.878-0.057-0.014-0.014-0.114-0.11-0.305-0.181v2.019c0.111 0.041 0.222 0.081 0.331 0.12 1.099 0.388 1.71 1.405 1.521 2.531-0.147 0.875-0.813 1.762-1.851 2.025v0.448c0 0.345-0.28 0.625-0.625 0.625s-0.625-0.28-0.625-0.625v-0.388c-0.505-0.044-0.923-0.18-1.516-0.568-0.289-0.189-0.37-0.576-0.181-0.865z"></path>
<path fill="#696969" d="M19.763 9.508c0.041-0.244 0.058-0.826-0.619-1.111v2.008c0.352-0.201 0.562-0.557 0.619-0.896z"></path>
</svg>
