<!-- Generated by IcoMoon.io -->
<svg version="1.1" xmlns="http://www.w3.org/2000/svg" width="32" height="32" viewBox="0 0 32 32">
<title></title>
<g id="icomoon-ignore">
</g>
<path fill="#fff" d="M21.333 8c0 2.946-2.388 5.333-5.333 5.333s-5.333-2.388-5.333-5.333c0-2.946 2.388-5.333 5.333-5.333s5.333 2.388 5.333 5.333z"></path>
<path fill="#fff" d="M20.333 16h-8.667c-3.492 0-6.333 2.841-6.333 6.333v3.333c0 0.552 0.448 1 1 1h19.333c0.552 0 1-0.448 1-1v-3.333c0-3.492-2.841-6.333-6.333-6.333z"></path>
<path fill="#fff" d="M6.667 0h-2.667c-2.205 0-4 1.795-4 4v2.667c0 0.737 0.597 1.333 1.333 1.333s1.333-0.596 1.333-1.333v-2.667c0-0.736 0.599-1.333 1.333-1.333h2.667c0.736 0 1.333-0.596 1.333-1.333s-0.597-1.333-1.333-1.333z"></path>
<path fill="#fff" d="M6.667 29.333h-2.667c-0.735 0-1.333-0.597-1.333-1.333v-2.667c0-0.737-0.597-1.333-1.333-1.333s-1.333 0.596-1.333 1.333v2.667c0 2.205 1.795 4 4 4h2.667c0.736 0 1.333-0.596 1.333-1.333s-0.597-1.333-1.333-1.333z"></path>
<path fill="#fff" d="M28 0h-2.667c-0.736 0-1.333 0.596-1.333 1.333s0.597 1.333 1.333 1.333h2.667c0.735 0 1.333 0.597 1.333 1.333v2.667c0 0.737 0.597 1.333 1.333 1.333s1.333-0.596 1.333-1.333v-2.667c0-2.205-1.795-4-4-4z"></path>
<path fill="#fff" d="M30.667 24c-0.736 0-1.333 0.596-1.333 1.333v2.667c0 0.736-0.599 1.333-1.333 1.333h-2.667c-0.736 0-1.333 0.596-1.333 1.333s0.597 1.333 1.333 1.333h2.667c2.205 0 4-1.795 4-4v-2.667c0-0.737-0.597-1.333-1.333-1.333z"></path>
</svg>
