<!-- Generated by IcoMoon.io -->
<svg version="1.1" xmlns="http://www.w3.org/2000/svg" width="32" height="32" viewBox="0 0 32 32">
<title></title>
<g id="icomoon-ignore">
</g>
<path fill="#696969" d="M25 0h-18c-3.866 0-7 3.134-7 7v18c0 3.866 3.134 7 7 7h18c3.866 0 7-3.134 7-7v-18c0-3.866-3.134-7-7-7zM30 25c0 2.761-2.239 5-5 5h-18c-2.761 0-5-2.239-5-5v-18c0-2.761 2.239-5 5-5h18c2.761 0 5 2.239 5 5v18z"></path>
<path fill="#696969" d="M9 9.18v-3.18h-2v3.18c-1.555 0.573-2.351 2.297-1.778 3.852 0.304 0.824 0.954 1.474 1.778 1.778v11.19h2v-11.18c1.557-0.565 2.362-2.286 1.796-3.844-0.303-0.835-0.961-1.493-1.796-1.796z"></path>
<path fill="#696969" d="M17 17.19v-11.19h-2v11.18c-1.555 0.573-2.351 2.297-1.778 3.852 0.304 0.824 0.954 1.474 1.778 1.778v3.19h2v-3.18c1.555-0.573 2.351-2.297 1.778-3.852-0.304-0.824-0.954-1.474-1.778-1.778z"></path>
<path fill="#696969" d="M25 11.19v-5.19h-2v5.18c-1.555 0.573-2.351 2.297-1.778 3.852 0.304 0.824 0.954 1.474 1.778 1.778v9.19h2v-9.18c1.555-0.573 2.351-2.297 1.778-3.852-0.304-0.824-0.954-1.474-1.778-1.778z"></path>
</svg>
