<!-- Generated by IcoMoon.io -->
<svg version="1.1" xmlns="http://www.w3.org/2000/svg" width="24" height="32" viewBox="0 0 24 32">
<title></title>
<g id="icomoon-ignore">
</g>
<path opacity="0.9" fill="#696969" d="M12.6 4.6c-4.2 0-7.92 2.28-9.84 5.76l-2.76-2.76v7.8h7.8l-3.36-3.36c1.56-3 4.56-5.040 8.16-5.040 4.92 0 9 4.080 9 9s-4.080 9-9 9c-3.96 0-7.2-2.52-8.52-6h-2.52c1.32 4.8 5.76 8.4 11.040 8.4 6.36 0 11.4-5.16 11.4-11.4s-5.16-11.4-11.4-11.4zM10.8 10.6v6.12l5.64 3.36 0.96-1.56-4.8-2.88v-5.040h-1.8z"></path>
</svg>
