<!-- Generated by IcoMoon.io -->
<svg version="1.1" xmlns="http://www.w3.org/2000/svg" width="32" height="32" viewBox="0 0 32 32">
<title></title>
<g id="icomoon-ignore">
</g>
<path fill="#696969" d="M28.050 0h-12.050c-2.182 0-3.95 1.765-3.95 3.95v18.075c0 0.767 0.879 1.215 1.5 0.75l3.767-2.825h10.733c2.182 0 3.95-1.765 3.95-3.95v-12.050c0-2.182-1.765-3.95-3.95-3.95zM21.087 14.929h-4.083c-0.518 0-0.938-0.42-0.938-0.938s0.42-0.938 0.938-0.938h4.083c0.518 0 0.938 0.42 0.938 0.938s-0.42 0.938-0.938 0.938zM27.046 10.913h-10.042c-0.518 0-0.938-0.42-0.938-0.938s0.42-0.938 0.938-0.938h10.042c0.518 0 0.938 0.42 0.938 0.938s-0.42 0.938-0.938 0.938zM27.046 6.896h-10.042c-0.518 0-0.938-0.42-0.938-0.938s0.42-0.938 0.938-0.938h10.042c0.518 0 0.938 0.42 0.938 0.938s-0.42 0.938-0.938 0.938z"></path>
<path fill="#696969" d="M10.39 19.494c0 2.447-1.984 4.432-4.432 4.432s-4.432-1.984-4.432-4.432c0-2.448 1.984-4.432 4.432-4.432s4.432 1.984 4.432 4.432z"></path>
<path fill="#696969" d="M5.958 23.925c-3.291 0-5.958 2.668-5.958 5.958v1.179c0 0.518 0.42 0.938 0.938 0.938h10.042c0.518 0 0.938-0.42 0.938-0.938v-1.179c0-3.291-2.668-5.958-5.958-5.958z"></path>
</svg>
